<svg xmlns="http://www.w3.org/2000/svg" width="409.636" height="194.819" viewBox="0 0 307.227 146.114"><path d="M11.306 142.402c0 .088-.06.13-.15.13h-3.16c-.112 0-.166-.056-.26-.172l-2.47-3.905c-.053-.074-.088-.17-.203-.17l-1.664.023a.13.13 0 0 0-.147.147l.016 3.891a.167.167 0 0 1-.186.187H.318c-.108 0-.167-.078-.167-.208V130.03c0-.145.075-.207.167-.207h5.418c3.1 0 5.024 1.196 5.024 3.984a3.847 3.847 0 0 1-2.519 3.957c.818 1.236 3.044 4.541 3.044 4.541a.208.208 0 0 1 .02.097M5.194 131.51H3.4a.131.131 0 0 0-.147.124v4.882c0 .109.036.146.167.146h1.586c1.61 0 2.564-.841 2.564-2.708a2.138 2.138 0 0 0-2.376-2.444M17.792 142.734c-3.475 0-5.53-1.832-5.53-5.434 0-3.924 2.186-5.607 5.53-5.607 3.342 0 5.512 1.646 5.512 5.607 0 3.586-2.04 5.434-5.512 5.434m0-9.358c-1.773 0-2.412 1.046-2.412 3.903 0 2.712.692 3.72 2.412 3.72 1.754 0 2.394-1.043 2.394-3.72 0-2.876-.64-3.903-2.394-3.903M33.306 140.194a14.207 14.207 0 0 1-3.046 5.792.517.517 0 0 1-.332.128h-2.583a.142.142 0 0 1-.15-.128.258.258 0 0 1 .042-.09 9.23 9.23 0 0 0 2.224-3.176v-.023a.168.168 0 0 0-.172-.164h-1.718a.23.23 0 0 1-.209-.149l-3.378-10.372a.06.06 0 0 0-.02-.036c0-.079.097-.112.191-.112h2.818c.13 0 .189.015.223.13l2.616 8.65a.235.235 0 0 0 .204.166h.055a.195.195 0 0 0 .19-.15l2.28-8.666a.184.184 0 0 1 .186-.13h2.71c.092 0 .15.056.15.112v.036zM46.287 142.088c0 .125-.035.217-.225.258a42.355 42.355 0 0 1-4.783.409c-2.95 0-5.06-.803-5.06-3.66 0-2.804 2.055-3.474 4.428-3.474a25.19 25.19 0 0 1 2.542.201c0-1.682-.655-2.35-2.805-2.35-.708 0-1.68.074-2.484.13h-.057c-.131 0-.168-.056-.202-.164l-.17-1.348v-.041c0-.072.054-.107.146-.151.972-.107 2.598-.222 3.796-.222 2.967 0 4.875 1.066 4.875 4.054zm-3.062-4.584c0-.11-.037-.146-.19-.146h-1.419c-1.476 0-2.256.354-2.256 1.643 0 1.382.801 1.81 2.256 1.81h1.403c.17 0 .206-.056.206-.188zM51.793 142.533h-2.746c-.129 0-.17-.057-.17-.192v-13.972c0-.108.04-.168.17-.204l2.729-.186c.13 0 .207.055.207.186v14.176c0 .135-.042.192-.19.192M65.842 142.533h-4.71c-.334 0-.463-.131-.463-.429v-11.908c0-.236.129-.373.427-.373h4.635c3.678 0 6.537.79 6.537 5.89 0 5.415-2.897 6.82-6.426 6.82m-.111-11.022H64.16c-.294 0-.391.07-.391.386v8.616c0 .205.096.297.3.297h1.494c2.56 0 3.36-1.734 3.36-4.799 0-3.532-.933-4.5-3.193-4.5M84.313 142.213a38.524 38.524 0 0 1-4.82.485c-3.381 0-5.195-1.083-5.195-4.427v-6.223c0-.127.06-.184.189-.184h2.727a.165.165 0 0 1 .189.166v6.395c0 1.787.729 2.385 2.448 2.385a8.245 8.245 0 0 0 1.398-.11.181.181 0 0 0 .169-.187v-8.483c0-.11.056-.166.203-.166h2.71a.17.17 0 0 1 .19.185v9.904c0 .164-.059.22-.207.26M92.965 142.364c-.037.112-.114.146-.225.185-.915.076-1.437.11-2.15.11-1.887 0-2.838-.805-2.838-2.816v-6.128c0-.133-.04-.191-.172-.191h-1.116a.174.174 0 0 1-.187-.187v-1.307c0-.11.055-.166.204-.166h1.099c.133 0 .172-.073.172-.207l.02-2.463c0-.112.055-.171.185-.193l2.733-.165c.124 0 .164.04.164.187v2.653c0 .115.054.188.204.188h1.456c.154 0 .208.057.208.186v1.287c0 .116-.054.169-.187.169h-1.478a.187.187 0 0 0-.204.21v5.808c0 1.01.45 1.29 1.475 1.29h.637a.165.165 0 0 1 .166.167V141zM103.04 142.55c-.911.053-1.905.205-2.95.205-3.775 0-5.98-1.516-5.98-5.662 0-4.182 2.37-5.417 5.848-5.417.989 0 1.962.115 2.77.188.146.015.2.052.2.205l-.182 1.27c-.043.132-.079.185-.228.185l-1.83-.018c-2.334 0-3.402.84-3.402 3.512 0 2.544.822 3.792 3.178 3.792h2.576c.169 0 .206.036.206.168v1.363c0 .135-.037.17-.206.208M115.47 142.346c0 .13-.035.187-.165.187h-2.748c-.13 0-.184-.057-.184-.187v-6.388c0-1.87-.712-2.452-2.543-2.452h-1.571c-.112 0-.166.077-.166.21v8.63c0 .13-.057.187-.19.187h-2.745c-.13 0-.165-.056-.165-.186v-13.978c0-.13.055-.168.165-.188l2.727-.185c.133 0 .208.036.208.185v3.55c0 .094.035.153.166.153h.06s1.568-.174 2.333-.174c3.232 0 4.819 1.345 4.819 4.485zM135.29 142.305a.175.175 0 0 1 .024.093.12.12 0 0 1-.13.135h-2.708a.245.245 0 0 1-.262-.21l-.881-3.98a.188.188 0 0 0-.188-.132h-4.222c-.13 0-.167.023-.203.132l-.877 3.98c-.02.17-.095.21-.244.21h-2.58c-.11 0-.202-.055-.202-.17 0-.017.016-.04.016-.058l2.915-12.308a.225.225 0 0 1 .225-.169h6.183a.301.301 0 0 1 .26.186l2.898 12.291zm-5.454-10.665c0-.096-.093-.129-.187-.129h-1.23c-.11 0-.187.033-.206.129l-1.068 4.759v.044c0 .07.04.091.115.091h3.513c.072 0 .131-.021.131-.074 0-.017-.02-.039-.02-.061zM140.118 129.92c0 .13-.043.186-.192.186h-2.743c-.132 0-.172-.056-.172-.186v-1.55c0-.132.04-.183.172-.183h2.724c.15 0 .21.051.21.182zm-.192 12.613h-2.743c-.112 0-.172-.057-.172-.192v-10.293c0-.132.04-.184.172-.184h2.724c.15 0 .21.052.21.166v10.31c0 .136-.042.193-.191.193M148.248 133.506c-.806.018-1.4.075-2.24.13a.162.162 0 0 0-.173.168v8.52c0 .152-.052.209-.183.209h-2.731a.168.168 0 0 1-.185-.187v-9.905a.223.223 0 0 1 .185-.242c1.273-.17 3.87-.374 5.364-.427a.165.165 0 0 1 .17.186v1.38c0 .1-.076.168-.207.168M153.113 142.533h-2.746c-.132 0-.17-.057-.17-.192v-13.972c0-.108.038-.168.17-.204l2.725-.186c.133 0 .207.055.207.186v14.176c0 .135-.037.192-.186.192M159.07 129.92c0 .13-.039.186-.186.186h-2.744c-.135 0-.173-.056-.173-.186v-1.55c0-.132.038-.183.173-.183h2.725c.148 0 .205.051.205.182zm-.186 12.613h-2.744c-.116 0-.173-.057-.173-.192v-10.293c0-.132.038-.184.173-.184h2.725c.148 0 .205.052.205.166v10.31c0 .136-.039.193-.186.193M171.983 142.533h-2.738c-.136 0-.194-.057-.194-.192v-6.408c0-1.713-.65-2.406-2.37-2.406h-1.719c-.112 0-.17.035-.17.183v8.63c0 .136-.035.192-.182.192h-2.729c-.133 0-.186-.056-.186-.192v-9.897c0-.15.053-.228.163-.228a40.813 40.813 0 0 1 5.327-.501c3.51 0 4.969 1.417 4.969 4.559v6.067c0 .136-.035.192-.17.192M184.414 138.101h-6.836c-.112 0-.169.02-.169.165 0 1.982 1.084 2.604 3.273 2.604.684 0 1.51-.078 2.428-.174h.058c.07 0 .126.025.126.15v.04l-.184 1.439c-.038.15-.091.15-.206.185a25.084 25.084 0 0 1-3.122.245c-3.326 0-5.715-1.218-5.715-5.547 0-3.737 2.034-5.533 5.325-5.533 4.072 0 5.209 2.151 5.209 6.222 0 .153-.073.204-.187.204m-5.041-4.652c-1.702 0-2.056 1.272-2.056 2.786 0 .168.037.203.17.203h3.717c.13 0 .207-.017.207-.185 0-1.549-.304-2.804-2.038-2.804M189.338 142.772a20.572 20.572 0 0 1-3.118-.26c-.15-.036-.209-.094-.209-.207v-1.363c0-.113.06-.166.23-.166.484.034 1.7.125 2.668.125 1.455 0 2.372-.279 2.372-1.27 0-2.219-5.247-1.603-5.247-4.989 0-2.2 2.168-3.059 4.688-3.059a16.525 16.525 0 0 1 3.194.354c.112.02.224.075.224.185l-.224 1.253c-.02.096-.057.148-.148.148h-.038c-.634-.036-1.74-.126-2.39-.126-1.307 0-2.17.165-2.17 1.122 0 1.96 5.229 1.267 5.229 4.757 0 2.17-1.679 3.495-5.061 3.495M115.298 113.775v-48.54h30.319l9.089 27.304 9.11-27.304h30.34v48.54h-18.207V77.361l-12.133 36.414h-18.199l-12.124-36.414v36.414h-18.195zM33.372 86.468l21.239-21.233h-18.2l-18.21 18.201V65.235H0v48.543h18.201V95.565l18.21 18.213h24.277l-27.316-27.31zM109.228 101.642v12.133h-48.54v-48.54h18.206v36.407h30.334zM87.989 12.131V6.069h6.056V0h6.068v6.069h6.082v6.062h-6.082v6.07h-6.068v-6.07h-6.056zM60.689 37.93a10.617 10.617 0 1 0-10.625-10.627 10.624 10.624 0 0 0 10.625 10.626M84.958 37.93a10.617 10.617 0 1 0-10.619-10.627 10.618 10.618 0 0 0 10.619 10.626M109.228 37.93a10.617 10.617 0 1 0-10.612-10.627 10.629 10.629 0 0 0 10.612 10.626M133.493 37.93a10.617 10.617 0 1 0-10.61-10.627 10.624 10.624 0 0 0 10.61 10.626M60.691 40.958h72.804v12.134H60.691zM266.762 141.034a39.86 39.86 0 0 1-27.442-9.163l-.048.049a40.075 40.075 0 1 0 54.57-58.68l-.04.038a40.148 40.148 0 0 1-27.04 67.756M221.948 117.33c-1.304.682-1.606 1.748-.993 3.42.573 1.514 1.494 2.184 2.52 1.797.822-.295.967-1 .66-2.814l-.122-.711a7.163 7.163 0 0 1-.095-3.304 2.31 2.31 0 0 1 1.486-1.704c1.832-.68 3.505.484 4.487 3.04 1.026 2.781.397 4.858-1.772 5.711l-.509-1.368c1.503-.617 1.922-2.008 1.157-4.028-.618-1.649-1.629-2.394-2.747-1.97-.873.319-1.1 1.14-.82 3l.104.789.104.683a6.098 6.098 0 0 1 .088 2.456 2.194 2.194 0 0 1-1.416 1.54c-1.726.647-3.345-.393-4.208-2.713-.938-2.517-.358-4.36 1.566-5.177zM221.12 102.817l6.173-4.989v1.882l-5.228 4.168 1.618 1.873 3.61.012v1.488h-10.309l-.004-1.481 4.052-.003.556.008h.527l-.335-.371-.334-.373-4.466-5.044-.013-1.965 4.153 4.795zM226.018 86.903l3.946 1.481-.506 1.399-3.956-1.494-7.18 2.007.637-1.699 4.45-1.136.564-.141a5.49 5.49 0 0 1 .749-.162 12.498 12.498 0 0 1-.764-1.04l-2.667-3.762.603-1.61zM233.408 68.051l-2.236 2.638 6.395 5.478-1.607 1.882-6.388-5.481-2.251 2.623-1.431-1.253 6.058-7.112 1.46 1.225zM247.556 58.554l-5.275 2.938 1.053 1.942 4.86-2.704.855 1.545-4.85 2.698 1.246 2.23 5.364-3.002.937 1.671-7.54 4.203-5.033-9.053 7.455-4.148.928 1.68zM261.659 57.543a14.712 14.712 0 0 1-1.073-2.131 16.128 16.128 0 0 1-.5 2.336l-.46 1.97 3.01-.412zm5.777 5.447l-2.698.134-1.282-2.268-4.188.577-.64 2.53-2.574.606 2.95-11.249 2.557-.346zM283.938 66.668l-2.145-.875.899-3.061c.085-.351.241-.844.43-1.475.178-.65.35-1.148.466-1.518.14-.414.282-.84.422-1.28l.255-.736c-.608 1.032-.87 1.389-1.445 2.228-.247.372-.476.68-.666.937l-3.006 4.047-1.877-.532-.478-4.956a9.018 9.018 0 0 1-.067-1.11c-.03-.654-.041-1.146-.049-1.482-.008-.284 0-.69.013-1.257l-.29 1.251c-.332 1.35-.495 1.936-.935 3.555l-.914 3.316-2.282-.412 2.786-10.061 3.47.74.387 4.808a20.048 20.048 0 0 1 .02 3.394 15.889 15.889 0 0 1 1.022-1.692c.318-.458.578-.854.815-1.213l2.813-3.841 3.26 1.191z" fill="#fff"/><path d="M282.99 100.027c3.024-1.94 5.536-2.968 7.067-2.873.919.046 1.995.34 1.967 1.47-.027 1.158-1.14 2.094-3.318 2.838a19.249 19.249 0 0 1-7.97.318 23.771 23.771 0 0 1 2.254-1.753m-41.953 2.778c-1.835-.164-2.728-.93-2.686-2.355 0-.186.218-4.705 10.573-5.002a25.071 25.071 0 0 1 4.504.212c-.082.007-1.187.987-1.187.987l-.652.575c-2.55 2.22-6.812 5.93-10.552 5.583m22.758-16.637c-1.265 1.074-3.807 3.408-6.249 5.656l-2.766 2.56a36.45 36.45 0 0 0-6.647-.74c-5.02-.113-9.662 1.185-11.815 3.286a3.722 3.722 0 0 0-1.23 2.623c0 2.442 2.765 3.73 3.603 4.068a12.036 12.036 0 0 0 12.18-1.327 65.028 65.028 0 0 0 6.957-5.78c1.579.388 3.364.91 5.304 1.527l1.763.552c-2.358 2.237-4.788 4.593-7.032 6.493l-.187.153c-3.112 2.633-5.376 4.55-8.583 5.2a6.585 6.585 0 0 1-4.369-.388c-.061.001-.122.086-.122.086a8.178 8.178 0 0 0 6.58 2.282c2.877-.182 6.244-1.932 9.69-5.05l4.694-4.41 3.278-3.133c0 .02 6.454 2.05 6.454 2.05.05.014.124.038.124.038-.074 0-4.114 3.834-4.114 3.834l-3.52 3.367a66.757 66.757 0 0 1-7.68 6.543c-3.447 2.348-6.401 3.548-8.988 3.668a8.683 8.683 0 0 1-4.833-1.052c-.078-.016-.178.068-.178.068 1.704 1.529 3.814 3.375 7.499 3.353 4.158-.041 7.889-1.967 13.759-7.122 2.661-2.35 5.313-5 7.66-7.322l4.356-4.25a32.945 32.945 0 0 0 8.097.992c4.03.018 7.533-1.861 7.618-4.082.07-1.625-1.255-2.53-2.055-3.068a9.24 9.24 0 0 0-4.927-1.55c-3.037-.062-6.229 1.21-9.5 3.778l-2.157 1.84c.018-.01-.79-.22-.79-.22l-5.909-1.804c1.782-1.6 3.315-2.966 4.686-4.143a16.199 16.199 0 0 1 9.032-4.032c1.522-.064 4.205.127 5.283.935.04-.01.127-.115.127-.115a10.707 10.707 0 0 0-7.486-3.005c-2.052-.047-5.36.53-9.466 3.595a69.844 69.844 0 0 0-6.142 5.544c0-.02-2.986-.986-2.986-.986l-.727-.245-3.143-1.025c.08 0 1.854-1.664 1.854-1.664 2.165-2.045 4.21-3.98 5.816-5.272 5.784-4.669 9.387-5.233 11.883-5.192a10.783 10.783 0 0 1 6.41 1.814c.06 0 .135-.108.135-.108-3.142-2.962-5.43-3.933-9.395-4.065-3.487-.1-7.696 1.761-11.846 5.245M288.25 58.828a1.706 1.706 0 1 1 .994 2.184 1.688 1.688 0 0 1-.993-2.185m2.887 1.242a1.443 1.443 0 1 0-1.93.635 1.435 1.435 0 0 0 1.93-.635m-.974.538l-.27-.13-.135-1.021-.27-.144-.387.767-.228-.114.83-1.663.722.354c.293.148.55.378.377.738-.161.32-.456.335-.76.194zm-.291-1.386c.213.103.563.318.69.053.088-.173-.127-.318-.306-.41l-.442-.214-.22.42z" fill="#fff"/></svg>