<svg data-name="Layer 1" xmlns="http://www.w3.org/2000/svg" width="577" height="364" viewBox="0 0 433 273"><path d="M116 18a272 272 0 0 1-36 3 239 239 0 0 1-34-3L0 244l29-2a243 243 0 0 1 26 2l5-32a145 145 0 0 0 18 1 148 148 0 0 0 18-1l4 32 30-2c17 0 31 2 31 2zM79 172a56 56 0 0 1-12-1l13-77 10 77a47 47 0 0 1-11 1z" fill="#fff"/><path d="M203 126v-21c0-6-5-13-12-16a18 18 0 0 0 11-16V56c0-16-13-26-27-26h-42v114l15-1 14 1v-44h7c4 0 6 4 6 7v19c0 8 3 18 7 18a74 74 0 0 1 12-1 96 96 0 0 1 12 1v-1s-3-9-3-17zm-28-52c0 4-2 5-5 5h-8V53h8c3 0 5 1 5 5v16zm99 153l23-1 29 1c19 0 33-11 33-31v-18c0-12-4-22-19-25 16-3 19-15 19-25v-16c0-20-14-31-33-31l-29 1-23-1zm50-37c0 6-2 8-6 8h-10v-31h10c4 0 6 2 6 7v16zm0-56c0 5-2 8-6 8h-10v-31h10c4 0 6 2 6 7z" fill="#fff"/><path d="M209 109V0a126 126 0 0 0 18 2 129 129 0 0 0 18-2v109c0 4 4 7 8 7s8-3 8-7V0a101 101 0 0 0 16 2 114 114 0 0 0 17-2v109c0 20-17 36-41 36-25 0-44-16-44-36zm185-5l-6 37a27 27 0 0 0 5 1 23 23 0 0 0 6-1zm24 72l-14 1-2-15a72 72 0 0 1-9 0 71 71 0 0 1-9 0l-2 15a118 118 0 0 0-13-1l-14 1 22-110a116 116 0 0 0 17 1 132 132 0 0 0 17-1l22 110-15-1z" fill="#fff"/><path d="M121 184l68-21 20-69 22 69 68 20-68 21-20 69-22-69-68-20z" fill="#e51f22"/><path d="M147 176l-26 8 30 9-4-17zm48-33a90 90 0 0 1 11 1v-1s-3-9-3-17v-8zm27-9l-13-40v15a33 33 0 0 0 13 25zm52 57l25-8-25-7z" fill="#7f3a3e"/></svg>