<svg width="433" height="273" fill="none" xmlns="http://www.w3.org/2000/svg"><path d="M115.93 18.347a272.396 272.396 0 0 1-35.832 2.48 239.046 239.046 0 0 1-34.47-2.48L0 243.624s13.427-1.242 29.063-1.242c8.693-.053 17.382.362 26.03 1.242l5.068-31.461a145.327 145.327 0 0 0 17.87 1.242 147.532 147.532 0 0 0 17.958-1.242l4.055 31.461s12.544-1.242 29.848-1.242 30.651 1.242 30.651 1.242L115.93 18.347zM79.064 171.8a56.371 56.371 0 0 1-11.805-1.241l12.842-76.105 10.142 76.105a46.889 46.889 0 0 1-11.178 1.241z" fill="#fff"/><path d="M202.568 125.579l-.004-20.653c0-6.004-4.398-13.038-11.889-16.297a18.417 18.417 0 0 0 8.043-6.406 18.442 18.442 0 0 0 3.359-9.722V55.686c0-15.785-13.196-26.08-27.365-26.08 0 0-12.294.628-23.898.628s-17.47-.628-17.47-.628v114.271s6.294-.629 14.439-.629 14.714.629 14.714.629V99.952h6.678c4.073 0 6.19 4.29 6.19 7.378v18.874c0 8.235 2.279 17.673 6.841 17.673a73.798 73.798 0 0 1 11.575-.629c4.18-.064 8.36.146 12.514.627v-.547s-3.727-9.404-3.727-17.749zm-28.017-52.05c0 4.118-1.63 5.662-4.887 5.662h-7.167V52.77h7.167c3.257 0 4.887 1.544 4.887 5.66v15.1zM273.586 226.907s10.934-.803 22.952-.803c12.017 0 29.761.803 29.761.803 18.812 0 32.954-10.943 32.954-31.301v-17.731c0-11.599-4.376-21.453-19.029-25.173 15.31-2.627 19.029-14.664 19.029-25.173v-15.103c0-20.136-14.142-31.3-32.954-31.3 0 0-12.723.802-29.761.802-17.039 0-22.952-.802-22.952-.802v145.781zm50.745-36.556c0 5.255-2.627 7.223-6.778 7.223h-9.625v-30.863h9.625c4.151 0 6.778 2.189 6.778 7.223v16.417zm0-56.036c0 5.033-2.627 7.223-6.778 7.223h-9.625v-30.863h9.625c4.151 0 6.778 1.972 6.778 7.222v16.418z" fill="#fff"/><path d="M209.477 109.077V0a126.126 126.126 0 0 0 17.634 1.56A129.31 129.31 0 0 0 244.883 0v108.892c0 4.307 3.719 6.852 7.629 6.852 4.305 0 8.022-2.545 8.022-6.852V0c5.484.979 11.04 1.5 16.61 1.56 5.776-.082 11.537-.603 17.234-1.56v109.09c0 19.575-17.018 35.629-41.866 35.629-24.758 0-43.035-16.133-43.035-35.642zM393.828 104.278l-6.255 37.06c1.889.404 3.815.606 5.746.605a22.91 22.91 0 0 0 5.448-.605l-4.939-37.06zm24.245 72.037c-8.424 0-14.539.605-14.539.605l-1.972-15.32a71.786 71.786 0 0 1-8.741.604 70.807 70.807 0 0 1-8.706-.604l-2.467 15.32a117.912 117.912 0 0 0-12.675-.605c-7.616 0-14.154.605-14.154.605l22.219-109.707a116.133 116.133 0 0 0 16.784 1.211 132.438 132.438 0 0 0 17.451-1.21L433 176.92s-6.502-.605-14.927-.605z" fill="#fff"/><path d="M120.887 184.337l68.589-21.302 20.004-68.654 21.279 68.599 68.604 20.095-68.546 21.296-20.063 68.628-21.278-68.597-68.589-20.065z" fill="#E51F22"/><path d="M147.185 176.172l-26.298 8.167 29.633 8.669-3.335-16.836zM195.24 143.252a90.344 90.344 0 0 1 11.054.622v-.547s-3.727-9.404-3.727-17.749c0-.559 0-3.75-.002-7.469l-7.325 25.143zM221.878 134.348L209.48 94.381l-.003.008v14.689a32.887 32.887 0 0 0 12.401 25.27zM273.584 191.085l25.777-8.011-25.777-7.55v15.561z" fill="#7F3A3E"/></svg>